<svg xmlns="http://www.w3.org/2000/svg" viewBox="0 8.859999656677246 272.489990234375 37.0099983215332" data-asc="0.9052734375" width="272.489990234375" height="37.0099983215332"><defs/><g fill="#138aae"><g transform="translate(0, 0)"><path d="M0 29.61L0 25.51L23.71 15.50L23.71 19.87L4.91 27.59L23.71 35.38L23.71 39.75L0 29.61ZM29.71 45.26L29.71 19.34L33.67 19.34L33.67 23.27Q35.18 20.51 36.46 19.63Q37.74 18.75 39.28 18.75Q41.50 18.75 43.80 20.17L42.29 24.24Q40.67 23.29 39.06 23.29Q37.62 23.29 36.47 24.16Q35.33 25.02 34.84 26.56Q34.11 28.91 34.11 31.69L34.11 45.26L29.71 45.26ZM63.33 42.07Q60.89 44.14 58.63 45.00Q56.37 45.85 53.78 45.85Q49.51 45.85 47.22 43.76Q44.92 41.67 44.92 38.43Q44.92 36.52 45.79 34.95Q46.66 33.37 48.06 32.42Q49.46 31.47 51.22 30.98Q52.51 30.64 55.13 30.32Q60.45 29.69 62.96 28.81Q62.99 27.91 62.99 27.66Q62.99 24.98 61.74 23.88Q60.06 22.39 56.74 22.39Q53.64 22.39 52.16 23.47Q50.68 24.56 49.98 27.32L45.68 26.73Q46.26 23.97 47.61 22.28Q48.95 20.58 51.49 19.67Q54.03 18.75 57.37 18.75Q60.69 18.75 62.77 19.53Q64.84 20.31 65.82 21.50Q66.80 22.68 67.19 24.49Q67.41 25.61 67.41 28.54L67.41 34.40Q67.41 40.53 67.69 42.15Q67.97 43.77 68.80 45.26L64.21 45.26Q63.53 43.90 63.33 42.07M62.96 32.25Q60.57 33.23 55.79 33.91Q53.08 34.30 51.95 34.79Q50.83 35.28 50.22 36.22Q49.61 37.16 49.61 38.31Q49.61 40.06 50.94 41.24Q52.27 42.41 54.83 42.41Q57.37 42.41 59.35 41.30Q61.33 40.19 62.26 38.26Q62.96 36.77 62.96 33.86L62.96 32.25ZM74.22 45.26L74.22 9.47L78.61 9.47L78.61 22.31Q81.69 18.75 86.38 18.75Q89.26 18.75 91.38 19.89Q93.51 21.02 94.42 23.02Q95.34 25.02 95.34 28.83L95.34 45.26L90.94 45.26L90.94 28.83Q90.94 25.54 89.51 24.04Q88.09 22.53 85.47 22.53Q83.52 22.53 81.80 23.55Q80.08 24.56 79.35 26.29Q78.61 28.03 78.61 31.08L78.61 45.26L74.22 45.26ZM119.02 45.26L119.02 41.46Q115.99 45.85 110.79 45.85Q108.50 45.85 106.51 44.97Q104.52 44.09 103.55 42.76Q102.59 41.43 102.20 39.50Q101.93 38.21 101.93 35.40L101.93 19.34L106.32 19.34L106.32 33.72Q106.32 37.16 106.59 38.35Q107.01 40.09 108.35 41.08Q109.69 42.07 111.67 42.07Q113.65 42.07 115.38 41.05Q117.11 40.04 117.83 38.29Q118.55 36.55 118.55 33.23L118.55 19.34L122.95 19.34L122.95 45.26L119.02 45.26ZM129.74 45.26L129.74 9.47L134.13 9.47L134.13 45.26L129.74 45.26ZM142.19 45.26L142.19 40.26L147.19 40.26L147.19 45.26L142.19 45.26ZM171.66 45.26L171.66 41.99Q169.19 45.85 164.40 45.85Q161.30 45.85 158.70 44.14Q156.10 42.43 154.68 39.37Q153.25 36.30 153.25 32.32Q153.25 28.44 154.54 25.28Q155.83 22.12 158.42 20.43Q161.01 18.75 164.21 18.75Q166.55 18.75 168.38 19.74Q170.21 20.73 171.36 22.31L171.36 9.47L175.73 9.47L175.73 45.26L171.66 45.26M157.76 32.32Q157.76 37.30 159.86 39.77Q161.96 42.24 164.82 42.24Q167.70 42.24 169.71 39.88Q171.73 37.52 171.73 32.69Q171.73 27.37 169.68 24.88Q167.63 22.39 164.62 22.39Q161.69 22.39 159.73 24.78Q157.76 27.17 157.76 32.32ZM200.39 36.91L204.93 37.48Q203.86 41.46 200.95 43.65Q198.05 45.85 193.53 45.85Q187.84 45.85 184.51 42.35Q181.18 38.84 181.18 32.52Q181.18 25.98 184.55 22.36Q187.92 18.75 193.29 18.75Q198.49 18.75 201.78 22.29Q205.08 25.83 205.08 32.25Q205.08 32.64 205.05 33.42L185.72 33.42Q185.96 37.70 188.13 39.97Q190.31 42.24 193.55 42.24Q195.97 42.24 197.68 40.97Q199.39 39.70 200.39 36.91M185.96 29.81L200.44 29.81Q200.15 26.54 198.78 24.90Q196.68 22.36 193.33 22.36Q190.31 22.36 188.24 24.39Q186.18 26.42 185.96 29.81ZM217.65 45.26L207.79 19.34L212.43 19.34L217.99 34.86Q218.90 37.38 219.65 40.09Q220.24 38.04 221.29 35.16L227.05 19.34L231.57 19.34L221.75 45.26L217.65 45.26ZM232.15 45.87L242.53 8.86L246.04 8.86L235.69 45.87L232.15 45.87ZM272.49 29.61L248.78 39.75L248.78 35.38L267.55 27.59L248.78 19.87L248.78 15.50L272.49 25.51L272.49 29.61Z"/></g></g></svg>